HIERARCHY
ROOT Hips
{
	OFFSET 0 0 0
	CHANNELS 6 Xposition Yposition Zposition Yrotation Xrotation Zrotation
	JOINT Spine
	{
		OFFSET -0 8.38753 -2.67353
		CHANNELS 3 Yrotation Xrotation Zrotation
		JOINT Spine1
		{
			OFFSET -0 8.14501 0
			CHANNELS 3 Yrotation Xrotation Zrotation
			JOINT Spine2
			{
				OFFSET -0 8.14501 0
				CHANNELS 3 Yrotation Xrotation Zrotation
				JOINT Spine3
				{
					OFFSET -0 8.14501 0
					CHANNELS 3 Yrotation Xrotation Zrotation
					JOINT Neck
					{
						OFFSET -0 20.4023 3.67353
						CHANNELS 3 Yrotation Xrotation Zrotation
						JOINT Head
						{
							OFFSET -0 10.4844 0
							CHANNELS 3 Yrotation Xrotation Zrotation
							End Site
							{
								OFFSET 0 15 0
							}
						}
					}
					JOINT LeftShoulder
					{
						OFFSET 1.7474 7.28686 3.4948
						CHANNELS 3 Yrotation Xrotation Zrotation
						JOINT LeftArm
						{
							OFFSET 15.4467 0 0
							CHANNELS 3 Yrotation Xrotation Zrotation
							JOINT LeftForeArm
							{
								OFFSET 24.9712 0 0
								CHANNELS 3 Yrotation Xrotation Zrotation
								JOINT LeftHand
								{
									OFFSET 23.8013 0 0
									CHANNELS 3 Yrotation Xrotation Zrotation
									End Site
									{
										OFFSET 15 0 0
									}
								}
							}
						}
					}
					JOINT RightShoulder
					{
						OFFSET -1.7474 7.28686 3.4948
						CHANNELS 3 Yrotation Xrotation Zrotation
						JOINT RightArm
						{
							OFFSET -15.4467 0 0
							CHANNELS 3 Yrotation Xrotation Zrotation
							JOINT RightForeArm
							{
								OFFSET -24.9712 0 0
								CHANNELS 3 Yrotation Xrotation Zrotation
								JOINT RightHand
								{
									OFFSET -23.8013 0 0
									CHANNELS 3 Yrotation Xrotation Zrotation
									End Site
									{
										OFFSET -15 0 0
									}
								}
							}
						}
					}
				}
			}
		}
	}
	JOINT LeftUpLeg
	{
		OFFSET 10.4844 -3.4948 2
		CHANNELS 3 Yrotation Xrotation Zrotation
		JOINT LeftLeg
		{
			OFFSET -0 -39.9267 2.44636
			CHANNELS 3 Yrotation Xrotation Zrotation
			JOINT LeftFoot
			{
				OFFSET -0 -41.4083 -2.44636
				CHANNELS 3 Yrotation Xrotation Zrotation
				JOINT LeftToeBase
				{
					OFFSET -0 -6.74672 15.7266
					CHANNELS 3 Yrotation Xrotation Zrotation
					End Site
					{
						OFFSET 0 0 5
					}
				}
			}
		}
	}
	JOINT RightUpLeg
	{
		OFFSET -10.4844 -3.4948 2
		CHANNELS 3 Yrotation Xrotation Zrotation
		JOINT RightLeg
		{
			OFFSET -0 -39.9267 2.44636
			CHANNELS 3 Yrotation Xrotation Zrotation
			JOINT RightFoot
			{
				OFFSET -0 -41.4083 -2.44636
				CHANNELS 3 Yrotation Xrotation Zrotation
				JOINT RightToeBase
				{
					OFFSET -0 -6.74672 15.7266
					CHANNELS 3 Yrotation Xrotation Zrotation
					End Site
					{
						OFFSET 0 0 5
					}
				}
			}
		}
	}
}
MOTION
Frames: 10
Frame Time: 0.00833333
0 95.070404 0 0 0 0 0 0 0 0 0 0 0 0 0 0 0 0 0 0 0 0 0 0 0 0 0 0 0 0 0 0 0 0 0 0 0 0 0 0 0 0 0 0 0 0 0 0 0 0 0 0 0 0 0 0 0 0 0 0 0 0 0 0 0 0 0 0 0 0 0 0
-81.121753 94.449835 16.855965 -0.492309 1.975899 1.047884 -0.132345 0.855450 -0.373104 -0.065486 1.076228 -0.318122 0.300864 1.220347 -0.247559 0.400384 1.322955 -0.100906 -3.127186 -3.542209 -1.295548 -1.319478 3.762455 -0.832181 18.218343 15.723621 4.723982 -54.026390 -6.058994 -52.797462 -5.391563 -7.535946 3.686902 3.348367 0.345617 -16.378710 -9.805739 2.005529 -6.893316 32.975555 7.457951 70.258014 14.947425 6.153578 -9.956155 -11.319420 -7.798550 18.023722 10.087294 -3.896101 6.285037 0.000000 1.544679 0.000000 14.223843 5.475584 -2.797205 0.000000 -4.127760 0.000000 -14.093063 -2.882276 -8.967818 0.000000 3.505525 0.000000 -9.581447 1.114366 6.746805 0.000000 -5.151072 0.000000
-81.120599 94.449426 16.858302 -0.487257 1.978744 1.058059 -0.141926 0.844671 -0.391699 -0.075180 1.090642 -0.315666 0.311292 1.220728 -0.232255 0.410711 1.339945 -0.083223 -3.116845 -3.581427 -1.339327 -1.314539 3.661021 -0.868443 18.221997 15.709284 4.726091 -54.082018 -6.051230 -52.815463 -5.399153 -7.623664 3.679246 3.337388 0.431464 -16.378927 -9.804753 1.975107 -6.926061 32.986277 7.429511 70.275548 14.918115 6.165409 -9.924360 -11.267534 -7.783639 17.994463 10.101247 -3.900880 6.271672 0.000000 1.548233 0.000000 14.205587 5.476302 -2.824828 0.000000 -4.146357 0.000000 -14.091055 -2.877637 -8.978000 0.000000 3.493501 0.000000 -9.587993 1.112175 6.748054 0.000000 -5.131060 0.000000
-81.122778 94.448328 16.863553 -0.477572 1.981757 1.049411 -0.144868 0.872184 -0.383097 -0.077068 1.057557 -0.307315 0.312656 1.206706 -0.223822 0.412329 1.354532 -0.077395 -3.112760 -3.556480 -1.374009 -1.312762 3.503602 -0.922449 18.219068 15.738537 4.722650 -54.074531 -6.083247 -52.821685 -5.395337 -7.587781 3.700985 3.307958 0.469277 -16.387344 -9.797640 1.976860 -6.954309 33.002681 7.430003 70.312397 14.925293 6.192578 -9.936769 -11.282175 -7.754763 18.026827 10.111241 -3.898467 6.280077 0.000000 1.534842 0.000000 14.195195 5.471993 -2.811903 0.000000 -4.125840 0.000000 -14.108045 -2.883013 -8.969223 0.000000 3.509440 0.000000 -9.573605 1.100737 6.758826 0.000000 -5.123919 0.000000
-81.119464 94.450262 16.868478 -0.477047 1.983469 1.047547 -0.145898 0.864476 -0.375234 -0.078206 1.070618 -0.300998 0.314635 1.212352 -0.219703 0.414344 1.352960 -0.073143 -3.105416 -3.558722 -1.420462 -1.309361 3.342022 -0.950913 18.219092 15.750219 4.727813 -54.081226 -6.103870 -52.830936 -5.406795 -7.623041 3.685462 3.309577 0.514918 -16.346312 -9.794658 1.971573 -6.964894 33.018170 7.432920 70.301947 14.939183 6.156531 -9.905228 -11.249418 -7.732387 18.064695 10.105290 -3.896482 6.280216 0.000000 1.535517 0.000000 14.198199 5.464816 -2.790156 0.000000 -4.133970 0.000000 -14.097565 -2.881244 -8.973349 0.000000 3.513150 0.000000 -9.594051 1.088952 6.816785 0.000000 -5.082098 0.000000
-81.121918 94.451160 16.871159 -0.464704 1.985372 1.043032 -0.150103 0.865451 -0.350411 -0.081968 1.080893 -0.297173 0.318167 1.218914 -0.231124 0.417474 1.342368 -0.078805 -3.075030 -3.576449 -1.436740 -1.296270 3.229771 -1.005725 18.213792 15.751460 4.732892 -54.087781 -6.085156 -52.822388 -5.436827 -7.660650 3.679122 3.310759 0.593678 -16.380347 -9.800168 1.984465 -6.974255 33.025769 7.401371 70.323407 14.929727 6.127271 -9.915729 -11.216122 -7.627704 18.093359 10.106929 -3.895593 6.285145 0.000000 1.525437 0.000000 14.183487 5.466849 -2.803677 0.000000 -4.106281 0.000000 -14.111015 -2.883207 -8.967431 0.000000 3.520052 0.000000 -9.592586 1.094922 6.824344 0.000000 -5.084024 0.000000
-81.120319 94.450836 16.874188 -0.462961 1.987833 1.044720 -0.154849 0.871590 -0.347329 -0.086098 1.073307 -0.291510 0.325099 1.227143 -0.224892 0.425146 1.338625 -0.077718 -3.051284 -3.566172 -1.460348 -1.286092 3.075174 -1.051348 18.223484 15.751628 4.736481 -54.112851 -6.101218 -52.818919 -5.411624 -7.687313 3.656810 3.289211 0.604581 -16.382031 -9.790595 1.976083 -6.995307 33.042092 7.404515 70.350047 14.929718 6.160669 -9.909381 -11.192357 -7.711587 18.108150 10.104362 -3.894393 6.282836 0.000000 1.524093 0.000000 14.175774 5.463073 -2.800171 0.000000 -4.120455 0.000000 -14.104480 -2.881460 -8.970396 0.000000 3.517707 0.000000 -9.597516 1.084272 6.814022 0.000000 -5.085699 0.000000
-81.120465 94.452844 16.877814 -0.458480 1.990026 1.044449 -0.148288 0.878787 -0.345133 -0.079223 1.078986 -0.286249 0.315886 1.215463 -0.217049 0.416807 1.342999 -0.077391 -3.022631 -3.556445 -1.481036 -1.273859 2.909364 -1.090493 18.229714 15.750789 4.745646 -54.113782 -6.126954 -52.834588 -5.397507 -7.697376 3.655891 3.296247 0.655624 -16.374245 -9.783400 1.988419 -7.002305 33.052637 7.400906 70.352357 14.941997 6.173577 -9.901821 -11.176980 -7.726613 18.086784 10.094449 -3.893270 6.286534 0.000000 1.520909 0.000000 14.184087 5.473470 -2.836895 0.000000 -4.106905 0.000000 -14.125900 -2.884910 -8.968974 0.000000 3.522052 0.000000 -9.593639 1.080194 6.828224 0.000000 -5.050945 0.000000
-81.114362 94.453174 16.881641 -0.472690 1.993319 1.047309 -0.156576 0.900335 -0.356984 -0.086587 1.059768 -0.274036 0.328316 1.222873 -0.191114 0.430893 1.328941 -0.066753 -2.999178 -3.543360 -1.545688 -1.263386 2.787938 -1.106420 18.238341 15.768148 4.731648 -54.150451 -6.136447 -52.830960 -5.361917 -7.714163 3.619018 3.268041 0.635334 -16.336835 -9.758059 2.007194 -7.041004 33.046538 7.408854 70.365424 14.990934 6.105990 -9.908336 -11.193982 -7.660705 18.059022 10.120710 -3.893802 6.274746 0.000000 1.526265 0.000000 14.175464 5.461330 -2.792095 0.000000 -4.108890 0.000000 -14.101558 -2.881357 -8.974330 0.000000 3.509223 0.000000 -9.611172 1.087389 6.827705 0.000000 -5.053530 0.000000
-81.111157 94.453387 16.885370 -0.464554 1.996379 1.041688 -0.156274 0.885867 -0.325596 -0.085788 1.083641 -0.268263 0.337172 1.215034 -0.203860 0.439120 1.330885 -0.066961 -2.980466 -3.523276 -1.578756 -1.255432 2.658496 -1.119319 18.201986 15.773982 4.725794 -54.104043 -6.178923 -52.825056 -5.337774 -7.743390 3.607785 3.245472 0.728132 -16.370675 -9.773340 1.995249 -7.063790 33.022511 7.397245 70.392756 15.019027 6.090397 -9.878311 -11.233613 -7.659401 17.991424 10.095848 -3.889701 6.280801 0.000000 1.516690 0.000000 14.191383 5.455574 -2.812551 0.000000 -4.081179 0.000000 -14.097329 -2.881249 -8.975420 0.000000 3.515618 0.000000 -9.620216 1.083528 6.860469 0.000000 -5.051998 0.000000
